<svg width="40" height="28" viewBox="0 0 40 28" fill="none" xmlns="http://www.w3.org/2000/svg">
<path fill-rule="evenodd" clip-rule="evenodd" d="M18.8284 15.0003H28.0005V13.0002H18.8284C18.5641 13.0002 18.3089 12.8948 18.1214 12.7073C17.7307 12.3166 17.7307 11.6838 18.1214 11.2932L24.6071 4.80747L23.193 3.39339L16.7073 9.87911C16.5198 10.0666 16.2659 10.1721 16.0003 10.1721C15.4482 10.1721 15.0003 9.72415 15.0003 9.17207V0H13.0002V9.17207C13.0002 9.43641 12.8948 9.69161 12.7073 9.87911C12.3166 10.2698 11.6838 10.2698 11.2932 9.87911L4.80747 3.39339L3.39339 4.80747L9.87911 11.2932C10.0666 11.4807 10.1721 11.7346 10.1721 12.0002C10.1721 12.5523 9.72415 13.0002 9.17208 13.0002H0V15.0003H9.17208C9.43641 15.0003 9.69161 15.1057 9.87912 15.2932C10.2698 15.6839 10.2698 16.3167 9.87912 16.7073L3.3934 23.193L4.80747 24.6071L11.2932 18.1214C11.4807 17.9339 11.7346 17.8284 12.0002 17.8284C12.5523 17.8284 13.0002 18.2763 13.0002 18.8284V28.0005H15.0003V18.8284C15.0003 18.5641 15.1057 18.3089 15.2932 18.1214C15.6839 17.7307 16.3167 17.7307 16.7073 18.1214L23.193 24.6071L24.6071 23.193L18.1214 16.7073C17.9339 16.5198 17.8284 16.2659 17.8284 16.0003C17.8284 15.4482 18.2764 15.0003 18.8284 15.0003Z" fill="black"/>
</svg>
