<svg width="32" height="32" viewBox="0 0 32 32" fill="none" xmlns="http://www.w3.org/2000/svg">
<path d="M10.4759 13.7143C10.4759 17.9599 13.8641 21.4145 18.0839 21.5215L18.2857 21.5235V24.1901C13.9727 24.1901 10.4759 27.6869 10.4759 32H7.80921L7.80725 31.7982C7.70026 27.5783 4.24562 24.1901 0 24.1901V21.5235C4.31306 21.5235 7.80921 18.0273 7.80921 13.7143H10.4759ZM9.14253 18.8308C8.1977 20.5155 6.80119 21.912 5.11651 22.8568C6.80116 23.8016 8.19765 25.1983 9.14253 26.8828C10.0873 25.1983 11.484 23.8016 13.1686 22.8568C11.484 21.9119 10.0873 20.5154 9.14253 18.8308Z" fill="currentColor"/>
<path d="M24.1901 0C24.1901 4.24562 27.5783 7.70026 31.7982 7.80725L32 7.80921V10.4759C27.6869 10.4759 24.1901 13.9727 24.1901 18.2857H21.5235L21.5215 18.0839C21.4145 13.8641 17.9599 10.4759 13.7143 10.4759V7.80921C18.0273 7.80921 21.5235 4.31306 21.5235 0H24.1901ZM22.8568 5.11651C21.912 6.80119 20.5155 8.1977 18.8308 9.14253C20.5154 10.0873 21.9119 11.484 22.8568 13.1686C23.8016 11.484 25.1983 10.0873 26.8828 9.14253C25.1983 8.19765 23.8016 6.80116 22.8568 5.11651Z" fill="currentColor"/>
</svg>
