<svg width="32" height="32" viewBox="0 0 32 32" fill="none" xmlns="http://www.w3.org/2000/svg">
<path fill-rule="evenodd" clip-rule="evenodd" d="M32 32H22.1538V30.7692C22.1538 27.3706 19.3987 24.6154 16 24.6154C12.6013 24.6154 9.84615 27.3706 9.84615 30.7692V32H0V0H32V32ZM2.46154 29.5385H7.47236C8.06959 25.3634 11.6598 22.1538 16 22.1538C20.3403 22.1538 23.9304 25.3634 24.5276 29.5385H29.5385V17.2308H2.46154V29.5385ZM16 9.84615C13.0228 9.84615 10.5395 11.9603 9.96935 14.7692H22.0306C21.4605 11.9603 18.9772 9.84615 16 9.84615ZM2.46154 14.7692H7.47236C8.06959 10.5941 11.6598 7.38462 16 7.38462C20.3403 7.38462 23.9304 10.5941 24.5276 14.7692H29.5385V2.46154H2.46154V14.7692Z" fill="currentColor"/>
</svg>
