<svg width="32" height="32" viewBox="0 0 32 32" fill="none" xmlns="http://www.w3.org/2000/svg">
<path fill-rule="evenodd" clip-rule="evenodd" d="M22.5333 30C26.5658 30 29.8565 26.8033 30 22.8059V6.2C30 3.8804 28.1196 2 25.8 2C24.4805 2 23.3033 2.60871 22.5333 3.56042C21.7634 2.60871 20.5862 2 19.2667 2C17.9471 2 16.77 2.60871 16 3.56042C15.23 2.60871 14.0529 2 12.7333 2C11.4138 2 10.2366 2.60871 9.46667 3.56042C8.69669 2.60871 7.51953 2 6.2 2C3.8804 2 2 3.8804 2 6.2V22.5333C2 26.6571 5.34294 30 9.46667 30H22.5333ZM25.8 3.86667C27.0887 3.86667 28.1333 4.91134 28.1333 6.2V15.774V22.5333C28.1333 25.6261 25.6261 28.1333 22.5333 28.1333H9.46667C6.37387 28.1333 3.86667 25.6261 3.86667 22.5333V6.2C3.86667 4.91134 4.91134 3.86667 6.2 3.86667C7.48866 3.86667 8.53333 4.91134 8.53333 6.2L8.50326 14.5398L10.3699 14.5462L10.4 6.2C10.4 4.91134 11.4447 3.86667 12.7333 3.86667C14.022 3.86667 15.0667 4.91134 15.0667 6.2L15.0366 14.5398L16.9033 14.5462L16.9333 6.2C16.9333 4.91134 17.978 3.86667 19.2667 3.86667C20.5553 3.86667 21.6 4.91134 21.6 6.2L21.5699 14.5398L23.4366 14.5462L23.4667 6.2C23.4667 4.91134 24.5113 3.86667 25.8 3.86667Z" fill="currentColor"/>
<path fill-rule="evenodd" clip-rule="evenodd" d="M28.1333 6.2C28.1333 4.91134 27.0887 3.86667 25.8 3.86667C24.5113 3.86667 23.4667 4.91134 23.4667 6.2L23.4366 14.5462L21.5699 14.5398L21.6 6.2C21.6 4.91134 20.5553 3.86667 19.2667 3.86667C17.978 3.86667 16.9333 4.91134 16.9333 6.2L16.9033 14.5462L15.0366 14.5398L15.0667 6.2C15.0667 4.91134 14.022 3.86667 12.7333 3.86667C11.4447 3.86667 10.4 4.91134 10.4 6.2L10.3699 14.5462L8.50326 14.5398L8.53333 6.2C8.53333 4.91134 7.48866 3.86667 6.2 3.86667C4.91134 3.86667 3.86667 4.91134 3.86667 6.2V22.5333C3.86667 25.6261 6.37387 28.1333 9.46667 28.1333H22.5333C25.6261 28.1333 28.1333 25.6261 28.1333 22.5333V15.774V6.2Z" fill="white"/>
</svg>
