<svg width="32" height="32" viewBox="0 0 32 32" fill="none" xmlns="http://www.w3.org/2000/svg">
<path d="M21.6 19.2667C21.6 16.9471 23.4804 15.0667 25.8 15.0667C26.6634 15.0667 27.466 15.3272 28.1333 15.774V6.2C28.1333 4.91134 27.0887 3.86667 25.8 3.86667C24.5113 3.86667 23.4667 4.91134 23.4667 6.2V6.20365L23.4366 14.5462L21.5699 14.5398L21.6 6.2C21.6 4.91134 20.5553 3.86667 19.2667 3.86667C17.978 3.86667 16.9333 4.91134 16.9333 6.2V6.20365L16.9033 14.5462L15.0366 14.5398L15.0667 6.2C15.0667 4.91134 14.022 3.86667 12.7333 3.86667C11.4447 3.86667 10.4 4.91134 10.4 6.2V6.20365L10.3699 14.5462L8.50326 14.5398L8.53333 6.2C8.53333 4.91134 7.48866 3.86667 6.2 3.86667C4.91134 3.86667 3.86667 4.91134 3.86667 6.2V22.5333C3.86667 25.6261 6.37387 28.1333 9.46667 28.1333H22.5333C25.6261 28.1333 28.1333 25.6261 28.1333 22.5333V19.2667C28.1333 17.978 27.0887 16.9333 25.8 16.9333C24.5113 16.9333 23.4667 17.978 23.4667 19.2667C23.4667 21.5863 21.5863 23.4667 19.2667 23.4667C17.978 23.4667 16.9333 24.5113 16.9333 25.8H15.0667C15.0667 23.4804 16.9471 21.6 19.2667 21.6C20.5553 21.6 21.6 20.5553 21.6 19.2667ZM30 22.8059H29.9927C29.8492 26.8033 26.5658 30 22.5333 30H9.46667C5.34294 30 2 26.6571 2 22.5333V6.2C2 3.8804 3.8804 2 6.2 2C7.51953 2 8.69669 2.60871 9.46667 3.56042C10.2366 2.60871 11.4138 2 12.7333 2C14.0529 2 15.23 2.60871 16 3.56042C16.77 2.60871 17.9471 2 19.2667 2C20.5862 2 21.7634 2.60871 22.5333 3.56042C23.3033 2.60871 24.4805 2 25.8 2C28.1196 2 30 3.8804 30 6.2V22.8059Z" fill="currentColor"/>
</svg>
