<svg width="32" height="32" viewBox="0 0 32 32" fill="none" xmlns="http://www.w3.org/2000/svg">
<path d="M29.5385 23.3846C29.5385 20.3711 27.3721 17.865 24.512 17.3353C23.938 21.0241 21.0241 23.938 17.3353 24.512C17.865 27.3721 20.3711 29.5385 23.3846 29.5385C26.7833 29.5385 29.5385 26.7833 29.5385 23.3846ZM17.1274 9.95072C16.5534 13.6395 13.6395 16.5534 9.95072 17.1274C10.4804 19.9875 12.9865 22.1538 16 22.1538C19.3987 22.1538 22.1538 19.3987 22.1538 16C22.1538 12.9865 19.9875 10.4804 17.1274 9.95072ZM32 23.3846C32 28.1428 28.1428 32 23.3846 32C19.0175 32 15.4098 28.7507 14.8462 24.5379C11.0109 24.0245 7.97464 20.9886 7.46154 17.1532C3.24903 16.5893 0 12.9822 0 8.61539C3.17194e-07 3.85724 3.85724 0 8.61539 0C12.9822 0 16.5893 3.24903 17.1532 7.46154C20.9886 7.97464 24.0245 11.0109 24.5379 14.8462C28.7507 15.4098 32 19.0175 32 23.3846ZM2.46154 8.61539C2.46154 12.0141 5.21671 14.7692 8.61539 14.7692C12.0141 14.7692 14.7692 12.0141 14.7692 8.61539C14.7692 5.21671 12.0141 2.46154 8.61539 2.46154C5.21671 2.46154 2.46154 5.21671 2.46154 8.61539Z" fill="currentColor"/>
</svg>
